<?xml version="1.0" standalone="no"?>
<!DOCTYPE svg PUBLIC "-//W3C//DTD SVG 20010904//EN"
 "http://www.w3.org/TR/2001/REC-SVG-20010904/DTD/svg10.dtd">
<svg version="1.0" xmlns="http://www.w3.org/2000/svg"
 width="250.000000pt" height="250.000000pt" viewBox="0 0 250.000000 250.000000"
 preserveAspectRatio="xMidYMid meet">
<metadata>
Created by potrace 1.15, written by Peter Selinger 2001-2017
</metadata>
<g transform="translate(0.000000,250.000000) scale(0.100000,-0.100000)"
fill="#000000" stroke="none">
<path d="M1271 2138 c7 -13 42 -75 79 -138 37 -63 147 -254 245 -425 97 -170
185 -323 195 -340 136 -232 189 -329 184 -336 -8 -13 -1051 -12 -1059 2 -4 6
6 31 22 57 l29 47 411 5 410 5 -195 340 c-395 689 -454 790 -457 794 -3 2 -33
-2 -67 -9 -296 -58 -550 -272 -666 -560 -94 -234 -78 -522 44 -761 13 -27 28
-49 32 -49 4 0 24 31 46 68 188 329 349 607 360 625 8 12 25 41 38 63 176 311
255 444 263 444 6 0 37 -48 70 -107 33 -59 91 -159 128 -223 72 -120 330 -568
335 -582 2 -4 -25 -8 -60 -8 l-63 0 -55 96 c-30 54 -66 116 -80 139 -14 23
-79 137 -145 253 -66 116 -124 211 -130 211 -5 0 -70 -104 -142 -232 -73 -128
-213 -371 -312 -542 l-178 -310 24 -32 c30 -40 140 -129 211 -172 291 -175
680 -165 971 26 59 38 220 194 240 231 l12 22 -681 0 c-390 0 -680 4 -680 9 0
5 66 123 146 262 81 140 199 345 263 456 64 112 121 203 126 203 6 0 22 -22
37 -48 l27 -48 -173 -301 c-95 -165 -187 -324 -204 -352 -18 -28 -32 -53 -32
-56 0 -3 279 -5 620 -5 l619 0 21 48 c61 136 81 369 45 527 -69 305 -266 542
-547 657 -80 32 -237 68 -299 68 -38 0 -39 -1 -28 -22z m50 -691 c61 -107 111
-192 168 -288 28 -47 51 -91 51 -98 0 -8 -74 -11 -270 -11 -148 0 -270 3 -270
6 0 16 266 472 272 468 4 -3 26 -37 49 -77z"/>
</g>
</svg>
