<?xml version="1.0" encoding="utf-8"?>
<!-- Generator: Adobe Illustrator 16.0.0, SVG Export Plug-In . SVG Version: 6.00 Build 0)  -->
<!DOCTYPE svg PUBLIC "-//W3C//DTD SVG 1.1//EN" "http://www.w3.org/Graphics/SVG/1.1/DTD/svg11.dtd">
<svg version="1.1" id="Capa_1" xmlns="http://www.w3.org/2000/svg" xmlns:xlink="http://www.w3.org/1999/xlink" x="0px" y="0px"
	 width="27.333px" height="31.526px" viewBox="0 0 27.333 31.526" enable-background="new 0 0 27.333 31.526" xml:space="preserve">
<g>
	<path fill-rule="evenodd" clip-rule="evenodd" fill="#808080" d="M12.447,30.905h2.561l0.66-0.09
		c2.145-0.134,4.74-0.798,6.709-1.552c0.945-0.366,0.768-1.109,0.768-2.259c0-2.002,0-3.999,0-6.001c0-0.49,0-0.975,0-1.466
		c0-1.007,0.217-1.938-0.713-2.319c-0.277-0.113-0.932-0.258-1.066-0.445c-0.104-0.213-0.035-4.157-0.059-4.787
		c-0.07-1.961-0.986-3.909-2.256-5.108c-0.375-0.351-0.836-0.768-1.357-1.069c-2.215-1.289-3.25-0.992-3.73-1.165h-0.584
		c-0.074,0.024-0.883,0.104-1.057,0.128c-2.066,0.323-4.068,1.7-5.143,3.43c-0.625,1.011-1.115,2.21-1.184,3.721
		c-0.029,0.67,0.055,4.619-0.055,4.852c-0.223,0.352-1.596,0.242-1.764,1.268c-0.064,0.406-0.02,8.761-0.02,9.049
		c0,1.119-0.164,1.838,0.832,2.199c0.738,0.268,1.506,0.555,2.279,0.743c1.564,0.382,2.205,0.53,3.795,0.724
		C11.445,30.806,12.164,30.766,12.447,30.905L12.447,30.905z"/>
	<path fill-rule="evenodd" clip-rule="evenodd" fill="#E6E6E6" d="M8.617,16.104c0.375-0.039,0.793-0.152,1.18-0.213
		c2.566-0.41,5.152-0.426,7.709,0c0.381,0.064,0.818,0.184,1.184,0.213c0.061-1.084,0.006-2.344,0.006-3.447
		c0-1.928-0.748-3.643-2.35-4.579c-1.713-1.006-3.682-1.11-5.365-0.024c-1.596,1.035-2.373,2.557-2.373,4.563
		C8.611,13.736,8.553,14.999,8.617,16.104L8.617,16.104z"/>
	<path fill-rule="evenodd" clip-rule="evenodd" fill="#E6E6E6" d="M12.6,23.1c0,0.912,0,1.819,0,2.731
		c0,0.476-0.055,0.847,0.17,1.218c0.133,0.225,0.471,0.486,0.887,0.486c0.396-0.005,0.723-0.248,0.861-0.461
		c0.238-0.361,0.184-0.732,0.184-1.203c0-0.922,0.006-1.844,0-2.771c0.074-0.188,0.316-0.307,0.445-0.43
		c1.273-1.273,0.373-3.498-1.496-3.498c-1.779-0.006-2.789,2.15-1.516,3.478C12.258,22.778,12.531,22.922,12.6,23.1L12.6,23.1z"/>
</g>
</svg>
